<svg width="16" height="16" viewBox="0 0 16 16" fill="none" xmlns="http://www.w3.org/2000/svg">
<path fill-rule="evenodd" clip-rule="evenodd" d="M8 0C3.58172 0 0 3.58172 0 8C0 12.4183 3.58172 16 8 16H14C15.1046 16 16 15.1046 16 14V8C16 3.58172 12.4183 0 8 0ZM5 3.5C4.44772 3.5 4 3.94772 4 4.5V5.5C4 6.05228 4.44772 6.5 5 6.5C5.55228 6.5 6 6.05228 6 5.5V4.5C6 3.94772 5.55228 3.5 5 3.5ZM11 3.5C10.4477 3.5 10 3.94772 10 4.5V5.5C10 6.05228 10.4477 6.5 11 6.5C11.5523 6.5 12 6.05228 12 5.5V4.5C12 3.94772 11.5523 3.5 11 3.5ZM8.97371 9.47675L9.62313 8.76096C9.91463 8.43966 9.68666 7.92499 9.25282 7.92499H6.74718C6.31335 7.92499 6.08537 8.43966 6.37687 8.76096L7.03061 9.48151C7.0592 9.51506 7.08836 9.54788 7.11737 9.58001C7.2775 9.75732 7.375 9.99228 7.375 10.25C7.375 10.8023 6.92728 11.25 6.375 11.25C5.82272 11.25 5.375 10.8023 5.375 10.25C5.375 10.0174 5.2178 9.75006 4.98522 9.75006H4.59954C4.3546 9.75006 4.13571 9.91996 4.12659 10.1647C4.12553 10.193 4.125 10.2215 4.125 10.25C4.125 11.4926 5.13236 12.5 6.375 12.5C7.01379 12.5 7.59041 12.2338 7.99997 11.8063C8.40953 12.2338 8.98618 12.5001 9.625 12.5001C10.8676 12.5001 11.875 11.4927 11.875 10.2501C11.875 10.2196 11.8744 10.1893 11.8732 10.1592C11.8635 9.91526 11.6453 9.74619 11.4012 9.74619H11.017C10.7831 9.74619 10.625 10.0161 10.625 10.2501C10.625 10.8024 10.1773 11.2501 9.625 11.2501C9.07272 11.2501 8.625 10.8024 8.625 10.2501C8.625 9.99198 8.72277 9.75673 8.8833 9.57933C8.91355 9.5459 8.94395 9.51172 8.97371 9.47675ZM6.39055 8.00006L6.375 8.00001L6.35945 8.00006H6.39055Z" fill="black"/>
</svg>
